# xmcd
#
# Track frame offsets:
#	150
#	27926
#	47297
#	98955
#	116782
#	139108
#	160144
#	204095
#	230429
#	253097
#
# Disc length: 4285 seconds
#
# Revision: 0
# Processed by: cddbd v1.5.1PL2 Copyright (c) Steve Scherf et al.
# Submitted via: dBpowerAMP V4.0
#
DISCID=7d10bb0a
DTITLE=Stevie Ray Vaughan and Double Trouble - Blues at Sunrise
DYEAR=1900
DGENRE=Blues
TTITLE0=Ain't gonne 'n' give up on love
TTITLE1=Leave my girl alone
TTITLE2=Tin Pan Alley
TTITLE3=Chitlins Con Carne
TTITLE4=The things (that) I used to do
TTITLE5=The sky is crying
TTITLE6=Texas Flood
TTITLE7=May I have a talk with you
TTITLE8=Dirty Pool
TTITLE9=Blues at sunrise (Live)
EXTD=Stevie Ray Vaughan and Double Trouble - Blues at Sunrise
EXTT0=
EXTT1=
EXTT2=
EXTT3=
EXTT4=
EXTT5=
EXTT6=
EXTT7=
EXTT8=
EXTT9=
PLAYORDER=
